<svg xmlns="http://www.w3.org/2000/svg" xmlns:xlink="http://www.w3.org/1999/xlink" width="130" zoomAndPan="magnify" viewBox="0 0 97.5 37.5" height="50" preserveAspectRatio="xMidYMid meet" version="1.0"><defs><g/></defs><g fill="#000000" fill-opacity="1"><g transform="translate(3.424742, 23.433703)"><g><path d="M 1.085938 -5.90625 C 1.085938 -1.96875 3.46875 0.167969 7.703125 0.167969 C 11.34375 0.167969 12.859375 -0.675781 12.859375 -0.675781 L 12.859375 -2.980469 C 12.859375 -2.980469 12.484375 -2.175781 11.023438 -1.6875 C 10.273438 -1.445312 9.296875 -1.273438 7.929688 -1.273438 C 4.722656 -1.273438 3 -2.925781 3 -5.90625 C 3 -8.886719 4.722656 -10.535156 7.929688 -10.535156 C 9.242188 -10.535156 10.21875 -10.386719 10.949219 -10.160156 C 12.449219 -9.671875 12.859375 -8.828125 12.859375 -8.828125 L 12.859375 -11.136719 C 12.859375 -11.136719 11.34375 -11.980469 7.703125 -11.980469 C 3.46875 -11.980469 1.085938 -9.84375 1.085938 -5.90625 Z M 1.085938 -5.90625 "/></g></g></g><g fill="#000000" fill-opacity="1"><g transform="translate(17.328082, 23.433703)"><g><path d="M 0.695312 -11.8125 C 1.96875 -11.492188 2.210938 -11.230469 2.210938 -9.804688 L 2.210938 -2.007812 C 2.210938 -0.582031 1.96875 -0.320312 0.695312 0 L 5.660156 0 C 4.386719 -0.320312 4.144531 -0.582031 4.144531 -2.007812 L 4.144531 -10.367188 L 8.960938 -10.367188 C 10.742188 -10.367188 11.566406 -9.636719 11.566406 -8.078125 C 11.566406 -6.523438 10.742188 -5.773438 8.960938 -5.773438 L 6.5625 -5.773438 L 11.265625 0 L 14.492188 0 C 13.515625 -0.300781 13.027344 -0.75 11.867188 -2.136719 L 9.972656 -4.347656 C 12.335938 -4.519531 13.480469 -5.71875 13.480469 -8.0625 C 13.480469 -10.59375 12.109375 -11.8125 9.335938 -11.8125 Z M 0.695312 -11.8125 "/></g></g></g><g fill="#000000" fill-opacity="1"><g transform="translate(32.037146, 23.433703)"><g><path d="M 3 -5.90625 C 3 -8.980469 4.816406 -10.535156 7.796875 -10.535156 C 10.78125 -10.535156 12.597656 -8.980469 12.597656 -5.90625 C 12.597656 -2.832031 10.78125 -1.273438 7.796875 -1.273438 C 4.816406 -1.273438 3 -2.832031 3 -5.90625 Z M 1.085938 -5.90625 C 1.085938 -1.855469 3.5625 0.167969 7.796875 0.167969 C 12.054688 0.167969 14.527344 -1.855469 14.527344 -5.90625 C 14.527344 -9.953125 12.035156 -11.980469 7.796875 -11.980469 C 3.5625 -11.980469 1.085938 -9.953125 1.085938 -5.90625 Z M 1.085938 -5.90625 "/></g></g></g><g fill="#000000" fill-opacity="1"><g transform="translate(47.626877, 23.433703)"><g><path d="M 0.167969 -11.8125 C 1.40625 -11.546875 1.648438 -11.15625 2.007812 -9.898438 L 4.707031 0 L 7.011719 0 L 9.429688 -9.203125 L 11.867188 0 L 14.171875 0 L 16.871094 -9.898438 C 17.226562 -11.15625 17.472656 -11.546875 18.710938 -11.8125 L 13.777344 -11.8125 C 14.734375 -11.625 15.089844 -11.398438 15.089844 -10.835938 C 15.089844 -10.59375 15.015625 -10.292969 14.902344 -9.898438 L 12.804688 -2.289062 L 10.292969 -11.8125 L 8.585938 -11.8125 L 6.074219 -2.289062 L 3.972656 -9.898438 C 3.863281 -10.292969 3.785156 -10.59375 3.785156 -10.835938 C 3.785156 -11.398438 4.144531 -11.625 5.097656 -11.8125 Z M 0.167969 -11.8125 "/></g></g></g><g fill="#000000" fill-opacity="1"><g transform="translate(66.476965, 23.433703)"><g><path d="M 0.695312 0 L 5.660156 0 C 4.386719 -0.320312 4.144531 -0.582031 4.144531 -2.007812 L 4.144531 -4.332031 L 9.335938 -4.332031 C 12.109375 -4.332031 13.480469 -5.53125 13.480469 -8.0625 C 13.480469 -10.59375 12.109375 -11.8125 9.335938 -11.8125 L 0.695312 -11.8125 C 1.96875 -11.492188 2.210938 -11.230469 2.210938 -9.804688 L 2.210938 -2.007812 C 2.210938 -0.582031 1.96875 -0.320312 0.695312 0 Z M 4.144531 -5.773438 L 4.144531 -10.367188 L 8.960938 -10.367188 C 10.742188 -10.367188 11.566406 -9.636719 11.566406 -8.078125 C 11.566406 -6.523438 10.742188 -5.773438 8.960938 -5.773438 Z M 4.144531 -5.773438 "/></g></g></g><g fill="#000000" fill-opacity="1"><g transform="translate(80.755061, 23.433703)"><g><path d="M 6.636719 -11.980469 C 2.644531 -11.980469 1.085938 -11.023438 1.085938 -8.90625 C 1.085938 -7.050781 2.210938 -6.222656 4.367188 -5.832031 L 8.472656 -5.003906 C 9.84375 -4.667969 10.421875 -4.199219 10.421875 -3.242188 C 10.421875 -1.929688 9.335938 -1.273438 6.898438 -1.273438 C 5.472656 -1.273438 4.386719 -1.425781 3.523438 -1.613281 C 1.59375 -2.0625 1.085938 -3.074219 1.085938 -3.074219 L 1.085938 -0.695312 C 1.085938 -0.695312 2.980469 0.167969 6.84375 0.167969 C 10.78125 0.167969 12.335938 -1.085938 12.335938 -3.261719 C 12.335938 -5.097656 11.285156 -6.09375 8.921875 -6.542969 L 4.875 -7.367188 C 3.730469 -7.628906 3 -7.949219 3 -8.921875 C 3 -10.105469 3.898438 -10.535156 6.449219 -10.535156 C 7.78125 -10.535156 8.886719 -10.367188 9.730469 -10.160156 C 11.605469 -9.671875 11.921875 -8.773438 11.921875 -8.773438 L 11.921875 -11.171875 C 11.921875 -11.171875 9.972656 -11.980469 6.636719 -11.980469 Z M 6.636719 -11.980469 "/></g></g></g></svg>