<svg xmlns="http://www.w3.org/2000/svg" xmlns:xlink="http://www.w3.org/1999/xlink" width="130" zoomAndPan="magnify" viewBox="0 0 97.5 101.249998" height="135" preserveAspectRatio="xMidYMid meet" version="1.0"><defs><g/></defs><g fill="#000000" fill-opacity="1"><g transform="translate(2.495511, 54.940077)"><g><path d="M 1.359375 -7.386719 C 1.359375 -2.460938 4.335938 0.210938 9.636719 0.210938 C 14.183594 0.210938 16.082031 -0.84375 16.082031 -0.84375 L 16.082031 -3.726562 C 16.082031 -3.726562 15.613281 -2.71875 13.785156 -2.109375 C 12.847656 -1.804688 11.628906 -1.59375 9.917969 -1.59375 C 5.90625 -1.59375 3.75 -3.65625 3.75 -7.386719 C 3.75 -11.113281 5.90625 -13.175781 9.917969 -13.175781 C 11.558594 -13.175781 12.777344 -12.988281 13.691406 -12.707031 C 15.566406 -12.097656 16.082031 -11.042969 16.082031 -11.042969 L 16.082031 -13.925781 C 16.082031 -13.925781 14.183594 -14.980469 9.636719 -14.980469 C 4.335938 -14.980469 1.359375 -12.308594 1.359375 -7.386719 Z M 1.359375 -7.386719 "/></g></g></g><g fill="#000000" fill-opacity="1"><g transform="translate(19.890212, 54.940077)"><g><path d="M 0.867188 -10.550781 C 2.460938 -10.152344 2.765625 -9.824219 2.765625 -8.042969 L 2.765625 -2.507812 C 2.765625 -0.726562 2.460938 -0.398438 0.867188 0 L 6.941406 0 C 5.34375 -0.398438 5.015625 -0.726562 5.015625 -2.507812 L 5.015625 -5.53125 C 5.015625 -7.878906 6.632812 -9.121094 8.535156 -9.121094 C 9.167969 -9.121094 9.683594 -9.027344 10.058594 -8.863281 C 10.785156 -8.558594 10.949219 -7.925781 10.949219 -7.925781 L 10.949219 -10.503906 C 10.949219 -10.503906 10.363281 -10.761719 8.746094 -10.761719 C 7.128906 -10.761719 5.8125 -10.058594 5.015625 -8.746094 L 5.015625 -10.550781 Z M 0.867188 -10.550781 "/></g></g></g><g fill="#000000" fill-opacity="1"><g transform="translate(31.025628, 54.940077)"><g><path d="M 3.609375 -5.273438 C 3.609375 -7.667969 4.96875 -9.121094 7.855469 -9.121094 C 10.738281 -9.121094 12.144531 -7.667969 12.144531 -5.273438 C 12.144531 -2.882812 10.738281 -1.429688 7.855469 -1.429688 C 4.96875 -1.429688 3.609375 -2.882812 3.609375 -5.273438 Z M 1.359375 -5.273438 C 1.359375 -1.851562 3.492188 0.210938 7.855469 0.210938 C 12.214844 0.210938 14.371094 -1.851562 14.371094 -5.273438 C 14.371094 -8.699219 12.214844 -10.761719 7.855469 -10.761719 C 3.492188 -10.761719 1.359375 -8.699219 1.359375 -5.273438 Z M 1.359375 -5.273438 "/></g></g></g><g fill="#000000" fill-opacity="1"><g transform="translate(46.732434, 54.940077)"><g><path d="M 0.210938 -10.550781 C 1.570312 -10.105469 1.898438 -9.707031 2.390625 -8.042969 L 4.851562 0 L 7.410156 0 L 9.894531 -8.019531 L 12.402344 0 L 14.957031 0 L 17.394531 -8.042969 C 17.886719 -9.707031 18.238281 -10.105469 19.597656 -10.550781 L 13.761719 -10.550781 C 14.910156 -10.316406 15.378906 -10.035156 15.378906 -9.378906 C 15.378906 -9.121094 15.308594 -8.816406 15.191406 -8.441406 L 13.292969 -2.25 L 10.738281 -10.550781 L 9.074219 -10.550781 L 6.515625 -2.25 L 4.617188 -8.441406 C 4.5 -8.816406 4.429688 -9.121094 4.429688 -9.378906 C 4.429688 -10.035156 4.898438 -10.316406 6.046875 -10.550781 Z M 0.210938 -10.550781 "/></g></g></g><g fill="#000000" fill-opacity="1"><g transform="translate(66.518324, 54.940077)"><g><path d="M 0.5625 5.273438 L 6.609375 5.273438 C 5.015625 4.875 4.710938 4.546875 4.710938 2.765625 L 4.710938 -2.15625 C 5.53125 -0.632812 7.082031 0.210938 9.332031 0.210938 C 12.800781 0.210938 14.652344 -1.851562 14.652344 -5.273438 C 14.652344 -8.699219 12.800781 -10.761719 9.332031 -10.761719 C 7.082031 -10.761719 5.53125 -9.917969 4.710938 -8.394531 L 4.710938 -10.550781 L 0.5625 -10.550781 C 2.15625 -10.152344 2.460938 -9.824219 2.460938 -8.042969 L 2.460938 2.765625 C 2.460938 4.546875 2.15625 4.875 0.5625 5.273438 Z M 4.710938 -5.390625 C 4.710938 -7.714844 6.117188 -9.121094 8.558594 -9.121094 C 10.996094 -9.121094 12.402344 -7.667969 12.402344 -5.273438 C 12.402344 -2.882812 11.019531 -1.429688 8.558594 -1.429688 C 6.117188 -1.429688 4.710938 -2.835938 4.710938 -5.15625 Z M 4.710938 -5.390625 "/></g></g></g><g fill="#000000" fill-opacity="1"><g transform="translate(82.50644, 54.940077)"><g><path d="M 6.28125 -10.761719 C 2.71875 -10.761719 1.335938 -9.730469 1.335938 -7.972656 C 1.335938 -6.28125 2.34375 -5.507812 4.289062 -5.15625 L 7.785156 -4.40625 C 9.097656 -4.125 9.402344 -3.65625 9.402344 -2.90625 C 9.402344 -1.921875 8.582031 -1.382812 6.65625 -1.382812 C 5.203125 -1.382812 4.171875 -1.570312 3.304688 -1.851562 C 1.570312 -2.367188 1.03125 -3.328125 1.03125 -3.328125 L 1.03125 -0.867188 C 1.03125 -0.867188 2.296875 0.210938 6.515625 0.210938 C 10.128906 0.210938 11.628906 -1.007812 11.628906 -2.90625 C 11.628906 -4.640625 10.761719 -5.53125 8.558594 -5.953125 L 5.109375 -6.707031 C 4.125 -6.917969 3.585938 -7.175781 3.585938 -7.972656 C 3.585938 -8.863281 4.382812 -9.167969 6.164062 -9.167969 C 7.292969 -9.167969 8.136719 -9.050781 8.839844 -8.863281 C 10.597656 -8.394531 11.019531 -7.363281 11.019531 -7.363281 L 11.019531 -9.824219 C 11.019531 -9.824219 9.800781 -10.761719 6.28125 -10.761719 Z M 6.28125 -10.761719 "/></g></g></g></svg>